<?xml version="1.0" ?><svg id="Layer_1" style="enable-background:new 0 0 32 32;" version="1.1" viewBox="0 0 32 32" xml:space="preserve" xmlns="http://www.w3.org/2000/svg" xmlns:xlink="http://www.w3.org/1999/xlink"><style type="text/css">
	.st0{fill:#FA9B55;}
	.st1{fill:#55C1FA;}
	.st2{fill:#E4EDF2;}
</style><g id="Shopping_Bag"><g><path class="st0" d="M16,4c1.859,0,3.413,1.281,3.858,3.003h2.051C21.433,4.169,18.968,2,16,2s-5.433,2.169-5.909,5.003h2.051    C12.587,5.281,14.141,4,16,4z"/><path class="st1" d="M29.619,26.532L26.664,7.847c-0.076-0.486-0.495-0.844-0.987-0.844H21.91h-2.051h-7.717h-2.051H6.323    c-0.492,0-0.911,0.358-0.987,0.844L2.381,26.531c-0.138,0.868,0.11,1.749,0.681,2.417C3.633,29.617,4.464,30,5.343,30h21.314    c0.879,0,1.71-0.383,2.281-1.052C29.509,28.28,29.757,27.399,29.619,26.532z M22,18.502c0,0.572-0.312,1.098-0.815,1.371    l-1.436,0.782c-0.674,0.367-1.225,0.916-1.593,1.587l-0.787,1.434c-0.275,0.5-0.8,0.81-1.369,0.81s-1.094-0.31-1.368-0.809    l-0.788-1.435c-0.368-0.671-0.919-1.22-1.593-1.587l-1.437-0.782C10.312,19.6,10,19.075,10,18.502s0.312-1.098,0.814-1.372    l1.437-0.783c0.674-0.367,1.225-0.916,1.593-1.587l0.787-1.434c0.276-0.5,0.801-0.809,1.369-0.809    c0.568,0,1.093,0.309,1.368,0.808l0.788,1.435c0.368,0.671,0.919,1.22,1.593,1.587l1.437,0.782C21.688,17.405,22,17.93,22,18.502z    "/><path class="st2" d="M19.749,16.348c-0.674-0.367-1.225-0.916-1.593-1.587l-0.788-1.435c-0.275-0.499-0.8-0.808-1.368-0.808    s-1.093,0.309-1.369,0.809l-0.787,1.434c-0.368,0.671-0.919,1.22-1.593,1.587l-1.437,0.783C10.312,17.405,10,17.93,10,18.502    s0.312,1.098,0.814,1.371l1.437,0.782c0.674,0.367,1.225,0.916,1.593,1.587l0.788,1.435c0.274,0.499,0.799,0.809,1.368,0.809    c0.569,0,1.094-0.31,1.369-0.81l0.787-1.434c0.368-0.671,0.919-1.22,1.593-1.587l1.436-0.782C21.688,19.6,22,19.075,22,18.502    s-0.312-1.098-0.814-1.372L19.749,16.348z"/></g></g></svg>